HIERARCHY
ROOT Hips
{
	OFFSET 49.220402 -7.686303 81.792702
	CHANNELS 6 Xposition Yposition Zposition Xrotation Yrotation Zrotation
	JOINT spine
	{
		OFFSET 0.000000 -0.359108 6.244789
		CHANNELS 3 Xrotation Yrotation Zrotation
		JOINT spine1
		{
			OFFSET 0.000000 -0.000002 9.069412
			CHANNELS 3 Xrotation Yrotation Zrotation
			JOINT spine2
			{
				OFFSET 0.000000 -0.000001 8.690140
				CHANNELS 3 Xrotation Yrotation Zrotation
				JOINT Neck
				{
					OFFSET 0.000000 -1.063724 22.311203
					CHANNELS 3 Xrotation Yrotation Zrotation
					JOINT Head
					{
						OFFSET 0.000000 -0.000001 6.740814
						CHANNELS 3 Xrotation Yrotation Zrotation
						End Site
						{
							OFFSET 0.000000 5.380967 16.316498
						}
					}
				}
				JOINT RightShoulder
				{
					OFFSET -3.659161 0.509512 9.384682
					CHANNELS 3 Xrotation Yrotation Zrotation
					JOINT RightArm
					{
						OFFSET 0.000000 -0.000002 12.308899
						CHANNELS 3 Xrotation Yrotation Zrotation
						JOINT RightArmRoll
						{
							OFFSET 0.000000 -0.000001 6.213753
							CHANNELS 3 Xrotation Yrotation Zrotation
							JOINT RightForeArm
							{
								OFFSET 0.000000 -0.000003 18.098495
								CHANNELS 3 Xrotation Yrotation Zrotation
								JOINT RightForeArmRoll
								{
									OFFSET 0.000000 -0.000001 6.972794
									CHANNELS 3 Xrotation Yrotation Zrotation
									JOINT RightHand
									{
										OFFSET 0.000000 -0.000002 13.992905
										CHANNELS 3 Xrotation Yrotation Zrotation
										End Site
										{
											OFFSET 0.000000 0.000000 0.100006
										}
									}
								}
							}
						}
					}
				}
				JOINT LeftShoulder
				{
					OFFSET 3.659161 0.509512 9.384682
					CHANNELS 3 Xrotation Yrotation Zrotation
					JOINT LeftArm
					{
						OFFSET 0.000000 -0.000002 12.308899
						CHANNELS 3 Xrotation Yrotation Zrotation
						JOINT LeftArmRoll
						{
							OFFSET 0.000000 -0.000001 6.213753
							CHANNELS 3 Xrotation Yrotation Zrotation
							JOINT LeftForeArm
							{
								OFFSET 0.000000 -0.000003 18.098495
								CHANNELS 3 Xrotation Yrotation Zrotation
								JOINT LeftForeArmRoll
								{
									OFFSET 0.000000 -0.000001 6.972794
									CHANNELS 3 Xrotation Yrotation Zrotation
									JOINT LeftHand
									{
										OFFSET 0.000000 -0.000002 13.992905
										CHANNELS 3 Xrotation Yrotation Zrotation
										End Site
										{
											OFFSET 0.000000 0.000000 0.100006
										}
									}
								}
							}
						}
					}
				}
			}
		}
	}
	JOINT RightUpLeg
	{
		OFFSET -5.535149 0.851454 -1.014999
		CHANNELS 3 Xrotation Yrotation Zrotation
		JOINT RightUpLegRoll
		{
			OFFSET 0.000000 -0.000002 16.407501
			CHANNELS 3 Xrotation Yrotation Zrotation
			JOINT RightLeg
			{
				OFFSET 0.000000 0.000003 -20.318100
				CHANNELS 3 Xrotation Yrotation Zrotation
				JOINT RightLegRoll
				{
					OFFSET 0.000000 -0.000003 20.384598
					CHANNELS 3 Xrotation Yrotation Zrotation
					JOINT RightFoot
					{
						OFFSET 0.000000 -0.000003 16.966805
						CHANNELS 3 Xrotation Yrotation Zrotation
						JOINT RightToeBase
						{
							OFFSET 0.000000 -0.000002 14.183395
							CHANNELS 3 Xrotation Yrotation Zrotation
							End Site
							{
								OFFSET 0.006012 0.791745 6.868896
							}
						}
					}
				}
			}
		}
	}
	JOINT LeftUpLeg
	{
		OFFSET 5.535149 0.851454 -1.014999
		CHANNELS 3 Xrotation Yrotation Zrotation
		JOINT LeftUpLegRoll
		{
			OFFSET 0.000000 -0.000002 16.407600
			CHANNELS 3 Xrotation Yrotation Zrotation
			JOINT LeftLeg
			{
				OFFSET 0.000000 -0.000003 20.318100
				CHANNELS 3 Xrotation Yrotation Zrotation
				JOINT LeftLegRoll
				{
					OFFSET 0.000000 -0.000003 20.573105
					CHANNELS 3 Xrotation Yrotation Zrotation
					JOINT LeftFoot
					{
						OFFSET 0.000000 -0.000003 16.778305
						CHANNELS 3 Xrotation Yrotation Zrotation
						JOINT LeftToeBase
						{
							OFFSET 0.000000 -0.000002 14.183395
							CHANNELS 3 Xrotation Yrotation Zrotation
							End Site
							{
								OFFSET -0.026943 0.791745 6.868896
							}
						}
					}
				}
			}
		}
	}
}
MOTION
Frames: 9
Frame Time: 0.041667
45.995296 -7.952579 81.500290 1.611082 5.960859 33.522449 -3.568482 0.201111 0.221216 -3.134923 0.390470 0.452823 -1.489846 0.395863 0.448096 25.420419 -18.957972 19.660851 -0.959329 25.587975 17.675568 -18.331102 -59.320261 -21.661177 -123.053057 -168.173724 -107.442762 -0.000003 0.000001 0.000005 106.779216 0.531928 -3.678454 -0.000008 0.000002 -2.999999 -4.999734 -7.998716 -0.000019 -13.647900 54.377489 15.942123 -2.872846 101.682290 -20.657467 -0.000000 -0.000005 0.000003 17.206290 1.316926 0.128941 -0.000000 -0.000007 2.999999 -4.999854 7.999255 -0.000043 -10.913739 -179.813445 0.375752 -179.999991 0.000005 -1.060010 151.177235 -1.636714 -1.523453 -0.000003 0.000002 1.095631 85.162439 6.428205 2.352417 26.112032 -7.345103 0.975008 -24.704350 162.610166 -1.707887 -0.000007 -0.000003 -0.941131 -9.882603 0.877770 1.038180 0.000003 0.000001 0.481099 58.994181 -3.638964 -9.319057 25.457061 7.349145 -0.000664 
46.083202 -7.991915 81.487404 1.584783 6.000021 33.803607 -3.576325 0.210965 0.231446 -3.150691 0.409600 0.473823 -1.505620 0.415243 0.468866 25.185025 -18.839494 19.486134 -0.931784 25.209684 17.560408 -18.126707 -59.227849 -21.418515 -122.604245 -168.306270 -107.388961 -0.000003 0.000002 0.000002 106.405127 0.541036 -3.700983 -0.000003 0.000001 -3.000002 -4.999732 -7.998726 -0.000018 -13.929140 54.632795 16.293302 -3.121235 101.511624 -20.458532 -0.000000 -0.000003 0.000001 17.084094 1.322187 0.131732 -0.000001 -0.000007 2.999998 -4.999851 7.999256 -0.000044 -10.806717 -179.850697 0.369117 -179.999991 0.000005 -1.062003 151.177645 -1.622703 -1.516730 -0.000002 0.000002 1.103570 85.217183 6.424947 2.361395 26.138350 -7.344301 1.015623 -24.771184 162.672621 -1.653278 -0.000002 -0.000004 -0.940793 -9.865496 0.850378 1.033935 0.000004 0.000001 0.483636 58.899583 -3.605460 -9.378201 25.457058 7.349144 -0.000675 
46.182602 -8.034549 81.469002 1.557085 6.039425 34.086728 -3.583909 0.221025 0.241881 -3.165940 0.429129 0.495247 -1.520874 0.435028 0.490057 24.944474 -18.725291 19.309192 -0.894228 24.830837 17.441351 -17.920987 -59.135095 -21.174179 -122.139219 -168.458748 -107.304628 -0.000002 0.000001 0.000005 106.020655 0.542502 -3.713340 -0.000005 -0.000000 -2.999999 -4.999736 -7.998718 -0.000019 -14.217536 54.884538 16.651836 -3.396121 101.339407 -20.232429 0.000001 -0.000005 0.000005 16.960898 1.327428 0.134295 -0.000001 -0.000006 3.000002 -4.999855 7.999256 -0.000046 -10.696600 -179.894861 0.356187 -179.999991 0.000005 -1.064013 151.178560 -1.602558 -1.507614 -0.000001 0.000002 1.112504 85.274475 6.421425 2.371032 26.164261 -7.343436 1.056519 -24.833806 162.732631 -1.599876 -0.000003 -0.000005 -0.940846 -9.842653 0.822156 1.029368 0.000003 -0.000000 0.486566 58.797520 -3.570182 -9.439843 25.457063 7.349144 -0.000672 
46.262596 -8.089073 81.453011 1.528216 6.078931 34.371721 -3.591240 0.231292 0.252536 -3.180699 0.449060 0.517124 -1.535629 0.455220 0.511689 24.699118 -18.614461 19.129871 -0.848277 24.451235 17.319043 -17.714048 -59.041378 -20.928217 -121.662198 -168.628888 -107.193938 -0.000004 0.000001 0.000005 105.627591 0.537346 -3.715734 -0.000007 0.000004 -3.000001 -4.999735 -7.998721 -0.000018 -14.512178 55.133185 17.016706 -3.698289 101.165675 -19.978814 0.000002 -0.000005 0.000004 16.836590 1.332459 0.136709 0.000000 -0.000007 3.000000 -4.999852 7.999257 -0.000042 -10.583884 -179.944954 0.337928 -179.999991 0.000005 -1.066006 151.179967 -1.576290 -1.498118 -0.000005 0.000003 1.122270 85.333672 6.417850 2.381358 26.189963 -7.342493 1.097767 -24.893118 162.791248 -1.547624 -0.000004 -0.000003 -0.941204 -9.815579 0.793282 1.024551 0.000003 0.000001 0.489806 58.689418 -3.533477 -9.503494 25.457064 7.349142 -0.000683 
46.359299 -8.128597 81.456108 1.498419 6.118384 34.658760 -3.598333 0.241770 0.263429 -3.194967 0.469396 0.539469 -1.549894 0.475822 0.533790 24.449917 -18.506292 18.948227 -0.795547 24.070837 17.193598 -17.505940 -58.946267 -20.680684 -121.177528 -168.813931 -107.060415 -0.000002 -0.000001 0.000003 105.227622 0.526039 -3.710321 -0.000004 0.000003 -2.999999 -4.999736 -7.998724 -0.000019 -14.812320 55.379310 17.387076 -4.028611 100.990501 -19.697244 0.000001 -0.000005 0.000004 16.711089 1.337121 0.139029 -0.000003 -0.000005 2.999999 -4.999856 7.999257 -0.000044 -10.468980 -180.000019 0.315333 -179.999991 0.000005 -1.068015 151.181634 -1.545645 -1.487222 -0.000002 0.000004 1.132687 85.394297 6.414124 2.392204 26.215760 -7.341477 1.139431 -24.950068 162.848608 -1.496093 -0.000004 -0.000004 -0.941792 -9.785799 0.763933 1.019570 0.000003 0.000000 0.493269 58.576768 -3.495704 -9.568455 25.457061 7.349149 -0.000693 
46.478100 -8.186850 81.443604 1.467934 6.157645 34.947810 -3.605177 0.252456 0.274552 -3.208759 0.490139 0.562311 -1.563680 0.496836 0.556383 24.197342 -18.399879 18.764164 -0.737610 23.689550 17.065578 -17.296727 -58.849040 -20.431613 -120.689607 -169.011242 -106.908102 -0.000004 0.000001 0.000004 104.822544 0.509285 -3.698258 -0.000005 0.000001 -3.000001 -4.999735 -7.998718 -0.000021 -15.116961 55.623203 17.761810 -4.388439 100.812964 -19.386479 0.000001 -0.000004 0.000002 16.584478 1.341228 0.141327 -0.000001 -0.000007 2.999999 -4.999854 7.999257 -0.000042 -10.352386 -180.058062 0.289180 -179.999991 0.000005 -1.071006 151.183423 -1.511493 -1.476371 -0.000002 0.000002 1.143607 85.455816 6.410310 2.403402 26.241858 -7.340381 1.181598 -25.005452 162.905735 -1.445243 -0.000004 -0.000005 -0.942524 -9.754810 0.734289 1.014509 0.000004 0.000000 0.496857 58.461194 -3.457194 -9.634066 25.457064 7.349144 -0.000693 
46.563499 -8.227047 81.430496 1.436978 6.196557 35.239060 -3.611788 0.263355 0.285937 -3.222079 0.511288 0.585672 -1.577005 0.518265 0.579485 23.942132 -18.294462 18.577640 -0.676039 23.307249 16.935193 -17.086471 -58.749053 -20.181008 -120.202655 -169.217923 -106.741083 -0.000004 0.000000 0.000004 104.414017 0.487826 -3.679679 -0.000006 0.000001 -3.000000 -4.999735 -7.998717 -0.000019 -15.425390 55.865661 18.140115 -4.778906 100.633125 -19.045779 -0.000001 -0.000003 0.000003 16.456665 1.344597 0.143658 -0.000002 -0.000006 3.000000 -4.999853 7.999257 -0.000042 -10.234402 -180.119096 0.260651 -179.999991 0.000005 -1.073015 151.185144 -1.475591 -1.464577 -0.000002 0.000001 1.154843 85.517629 6.406481 2.415183 26.268453 -7.339229 1.224330 -25.060203 162.962767 -1.394669 -0.000005 -0.000004 -0.943315 -9.724124 0.704532 1.009440 0.000004 -0.000001 0.500498 58.344261 -3.418327 -9.699850 25.457066 7.349148 -0.000707 
46.660400 -8.280550 81.422600 1.405785 6.234985 35.532488 -3.618173 0.274465 0.297586 -3.234961 0.532846 0.609576 -1.589891 0.540108 0.603131 23.684876 -18.189023 18.388657 -0.612386 22.923828 16.802643 -16.875294 -58.645807 -19.928994 -119.720908 -169.430998 -106.563505 -0.000003 0.000001 0.000006 104.003721 0.462360 -3.656791 -0.000006 0.000002 -2.999998 -4.999735 -7.998719 -0.000018 -15.736713 56.107098 18.520941 -5.200817 100.452098 -18.674728 0.000001 -0.000003 0.000006 16.327743 1.347042 0.146101 -0.000002 -0.000007 2.999998 -4.999856 7.999257 -0.000044 -10.115631 -180.181169 0.230564 -179.999991 0.000005 -1.076008 151.186770 -1.437928 -1.452823 -0.000001 0.000002 1.166223 85.579292 6.402542 2.427078 26.295754 -7.338001 1.267689 -25.115335 163.020728 -1.344306 -0.000006 -0.000004 -0.944089 -9.695271 0.674842 1.004435 0.000003 0.000001 0.504093 58.227506 -3.379468 -9.764970 25.457061 7.349145 -0.000704 
46.757198 -8.325727 81.406197 1.374591 6.272818 35.828181 -3.624334 0.285790 0.309512 -3.247393 0.554816 0.634053 -1.602327 0.562369 0.627344 23.426237 -18.082998 18.197147 -0.548190 22.539173 16.668139 -16.663278 -58.538662 -19.675620 -119.248204 -169.647255 -106.379308 -0.000003 0.000001 0.000004 103.593500 0.433784 -3.629697 -0.000006 -0.000001 -3.000000 -4.999736 -7.998721 -0.000019 -16.050096 56.348111 18.903344 -5.656462 100.267935 -18.271362 0.000000 -0.000003 0.000004 16.197614 1.348395 0.148696 -0.000001 -0.000007 3.000000 -4.999853 7.999257 -0.000043 -9.996249 -180.243269 0.199922 -179.999991 0.000005 -1.078011 151.188081 -1.400261 -1.440061 -0.000001 0.000001 1.177591 85.640177 6.398682 2.439213 26.324061 -7.336684 1.311770 -25.171704 163.078840 -1.293327 -0.000006 -0.000004 -0.944766 -9.669746 0.645393 0.999566 0.000003 0.000001 0.507558 58.112390 -3.341009 -9.829014 25.457061 7.349143 -0.000713 
